:SAMPLES-PER-SECOND 30
:FRAME-RANGE 1-3358
:FULLY-SPECIFIED
:DEGREES
2519
root  39.114 41.3122 -8.2234 6.71579 -77.2482 -0.594604
RightUpLeg  -11.514 -18.218 -10.6828
RightLeg  32.7179 -5.06589 -3.74325
RightFoot  5.12505 -3.20085 22.1134
RightToes  -5.8209e-011 0 -3.6325e-017
Spine  10.1843 0.00285018 3.37823
Spine1  -7.2822 0.225045 0.0485604
HEad  4.48146 23.6539 -0.44851
LeftShoulder1  0.640898 1.07373 -19.8709
LeftArm  -38.662 -6.47156 -13.3245
LeftForeArm  -18.4962 -16.4535 -7.64511
LeftHand  1.28831 -0.908996 -23.4447
RightShoulder  2.81602 5.65229 24.6626
RightArm  -36.6441 3.74575 -4.68216
RightForeArm  -31.3628 6.0108 8.32114
RightHand  1.01768 1.6208 16.6196
LeftUpLeg  -14.0454 36.5175 0.148005
LeftLeg  27.9347 -23.1527 -12.4527
LeftFoot  3.17857 4.40485 -33.8006
LeftToes  -4.03819e-010 -8.71445e-011 8.52097e-011
2520
root  40.224 41.1806 -7.19776 1.72545 -79.1105 4.19482
RightUpLeg  -9.12527 -17.0347 -10.1252
RightLeg  34.1966 1.4473 0.803393
RightFoot  5.03039 -3.53205 24.451
RightToes  -5.8209e-011 0 -3.6325e-017
Spine  9.45712 0.0357995 3.40183
Spine1  -7.23561 0.339538 -0.367245
HEad  6.74074 23.5681 0.0711726
LeftShoulder1  0.759601 0.584301 -19.4955
LeftArm  -39.2345 -9.79144 -14.4338
LeftForeArm  -15.486 -14.1049 -8.42697
LeftHand  1.14439 -0.518151 -22.2902
RightShoulder  2.55843 5.75882 21.3361
RightArm  -37.395 4.09681 -5.21873
RightForeArm  -29.6856 6.39871 8.17952
RightHand  1.05638 2.01302 16.3035
LeftUpLeg  -15.8432 32.4149 2.32129
LeftLeg  33.941 -19.5022 -13.2837
LeftFoot  2.34935 4.06207 -33.0877
LeftToes  -4.03819e-010 -8.71445e-011 8.52097e-011
2521
root  41.3762 40.7451 -6.20195 -6.51495 -81.774 12.2111
RightUpLeg  -6.606 -15.2844 -10.0135
RightLeg  33.7119 3.49748 2.25638
RightFoot  3.48694 -3.5796 27.2123
RightToes  -5.8209e-011 0 -3.6325e-017
Spine  9.36916 0.12573 3.13092
Spine1  -7.34126 0.609738 -1.32829
HEad  7.41604 23.8431 0.552164
LeftShoulder1  0.812728 0.287721 -18.6954
LeftArm  -40.5974 -12.7977 -15.1201
LeftForeArm  -13.6828 -11.4176 -9.03631
LeftHand  0.983759 0.125273 -21.6363
RightShoulder  2.39727 6.19249 18.2116
RightArm  -38.7454 5.15096 -5.80107
RightForeArm  -27.7179 6.15723 7.76024
RightHand  1.10279 2.40528 16.132
LeftUpLeg  -17.1961 28.9097 5.94415
LeftLeg  39.3598 -10.7786 -8.98554
LeftFoot  1.51101 3.00683 -26.3533
LeftToes  -4.03819e-010 -8.71445e-011 8.52097e-011
2522
root  42.545 40.0124 -5.23459 -22.4985 -84.2192 28.4832
RightUpLeg  -4.57755 -12.8766 -10.0784
RightLeg  32.9605 0.955686 0.414499
RightFoot  -3.17297 -1.99478 27.1453
RightToes  -5.8209e-011 0 -3.6325e-017
Spine  9.33337 0.0524964 2.21811
Spine1  -7.63668 0.644444 -2.03342
HEad  6.6418 24.6114 0.634393
LeftShoulder1  0.839914 0.060179 -17.7478
LeftArm  -42.4559 -15.1594 -15.2592
LeftForeArm  -11.8374 -8.67409 -9.11072
LeftHand  0.783708 0.930506 -20.5697
RightShoulder  2.25914 6.76576 15.2339
RightArm  -40.1875 6.48991 -6.05787
RightForeArm  -26.7325 5.9462 7.35068
RightHand  1.13837 2.61351 16.2033
LeftUpLeg  -17.9385 26.299 10.1318
LeftLeg  43.017 -5.89367 -5.47505
LeftFoot  -0.343329 2.03273 -20.8901
LeftToes  -4.03819e-010 -8.71445e-011 8.52097e-011
2523
root  43.7658 38.9306 -4.21941 -46.6087 -85.4369 53.3221
RightUpLeg  -4.00653 -10.6641 -10.8458
RightLeg  31.2179 -2.2528 -1.72146
RightFoot  -15.0974 0.747788 25.5611
RightToes  -5.8209e-011 0 -3.6325e-017
Spine  9.10566 -0.370956 1.04744
Spine1  -7.5243 0.233851 -2.20465
HEad  4.48303 25.3525 0.291051
LeftShoulder1  0.885018 -0.22542 -17.0374
LeftArm  -44.366 -17.0746 -14.3684
LeftForeArm  -12.5341 -6.15698 -8.35678
LeftHand  0.622976 1.72238 -20.1728
RightShoulder  2.12248 7.45074 12.3358
RightArm  -41.1451 7.37134 -6.20005
RightForeArm  -26.7398 6.15301 7.16707
RightHand  1.05154 2.38995 15.4145
LeftUpLeg  -18.7414 23.9463 14.3536
LeftLeg  44.6617 -3.3258 -3.11541
LeftFoot  -2.61997 1.28321 -16.5263
LeftToes  -4.03819e-010 -8.71445e-011 8.52097e-011
2524
root  45.1237 37.717 -3.01768 -72.7091 -86.6086 79.814
RightUpLeg  -7.18768 -8.12184 -12.092
RightLeg  33.5538 -2.36028 -1.94282
RightFoot  -23.7134 2.32104 22.6385
RightToes  -5.8209e-011 0 -3.6325e-017
Spine  10.9889 -0.890055 1.75053
Spine1  -8.40428 -0.152219 -2.57818
HEad  0.0127029 25.7456 -0.981392
LeftShoulder1  0.870453 -0.127195 -17.2976
LeftArm  -45.5225 -18.9691 -12.0275
LeftForeArm  -15.3357 -4.56176 -7.73488
LeftHand  0.369306 3.036 -19.5498
RightShoulder  1.85916 7.19273 10.1163
RightArm  -41.8372 8.23202 -6.96779
RightForeArm  -26.2081 6.81477 7.19601
RightHand  1.07693 2.53455 15.4877
LeftUpLeg  -18.7564 21.7747 19.597
LeftLeg  44.2978 -1.73307 -1.41328
LeftFoot  -4.08848 0.877053 -13.4041
LeftToes  -4.03819e-010 -8.71445e-011 8.52097e-011
2525
root  46.4776 36.5321 -1.65231 -135.701 -87.7767 142.904
RightUpLeg  -11.8403 -7.12475 -12.2425
RightLeg  37.8926 -1.56296 -1.58243
RightFoot  -29.2082 3.19817 21.3928
RightToes  -5.8209e-011 0 -3.6325e-017
Spine  13.154 -1.09392 3.21086
Spine1  -8.21199 -0.21889 -2.11218
HEad  -5.77199 25.9288 -2.67589
LeftShoulder1  0.789158 0.246049 -17.566
LeftArm  -47.1929 -19.4674 -9.54496
LeftForeArm  -15.986 -3.72612 -7.05318
LeftHand  0.177905 4.03067 -18.2797
RightShoulder  1.80685 7.2008 9.55517
RightArm  -42.5888 8.46604 -8.71742
RightForeArm  -25.8872 7.64555 7.16758
RightHand  1.14719 2.84337 15.8571
LeftUpLeg  -17.9222 19.7734 25.9906
LeftLeg  42.9961 -0.934759 -0.543381
LeftFoot  -5.80931 0.577339 -11.2037
LeftToes  -4.03819e-010 -8.71445e-011 8.52097e-011
2526
root  47.6709 35.6393 -0.150516 176.305 -86.1071 -168.408
RightUpLeg  -17.3943 -5.49381 -12.4519
RightLeg  42.3063 -1.31163 -1.58016
RightFoot  -30.408 3.65604 22.7403
RightToes  -5.8209e-011 0 -3.6325e-017
Spine  14.3167 -1.03104 2.98598
Spine1  -7.60454 -0.371412 -0.272453
HEad  -11.3419 25.8054 -3.01221
LeftShoulder1  0.706593 0.485074 -16.678
LeftArm  -47.2676 -17.716 -6.93333
LeftForeArm  -17.3156 -3.92154 -6.89418
LeftHand  0.124207 4.33562 -17.946
RightShoulder  1.92266 7.20607 10.7538
RightArm  -43.1885 8.29614 -9.28711
RightForeArm  -25.8413 8.10679 7.05203
RightHand  1.13034 2.74064 15.8288
LeftUpLeg  -16.9898 17.0676 30.6719
LeftLeg  40.4932 0.280791 0.634936
LeftFoot  -6.95112 0.403698 -9.43176
LeftToes  -4.03819e-010 -8.71445e-011 8.52097e-011
2527
root  48.662 34.9634 1.67448 165.475 -84.6806 -156.98
RightUpLeg  -21.5866 -5.09613 -14.4299
RightLeg  44.7428 -0.311131 -0.645804
RightFoot  -29.1283 3.80762 25.2343
RightToes  -5.8209e-011 0 -3.6325e-017
Spine  15.1395 -1.06113 1.7239
Spine1  -7.18017 -0.817677 1.83338
HEad  -14.3646 25.0602 -1.95049
LeftShoulder1  0.685779 0.494648 -16.0067
LeftArm  -45.7648 -14.919 -4.28248
LeftForeArm  -17.8848 -5.21782 -7.48847
LeftHand  0.177543 4.06943 -18.8457
RightShoulder  2.06396 6.67339 13.341
RightArm  -42.7187 7.66732 -8.21133
RightForeArm  -29.1321 9.87289 7.44733
RightHand  1.00285 2.01433 15.4768
LeftUpLeg  -16.3798 13.5492 31.9163
LeftLeg  38.9516 -0.0357842 0.340597
LeftFoot  -5.15393 0.492101 -8.5234
LeftToes  -4.03819e-010 -8.71445e-011 8.52097e-011
2528
root  49.4146 34.7097 3.95631 158.862 -83.9565 -150.083
RightUpLeg  -22.4232 -5.64752 -17.323
RightLeg  41.8564 0.183164 -0.118895
RightFoot  -25.4446 3.40745 28.4096
RightToes  -5.8209e-011 0 -3.6325e-017
Spine  15.7496 -0.974895 1.57485
Spine1  -7.08607 -0.946687 3.60818
HEad  -14.7016 23.2162 -0.317068
LeftShoulder1  0.689291 0.397943 -15.3573
LeftArm  -45.5986 -13.2512 -4.21946
LeftForeArm  -17.8802 -6.72219 -7.6894
LeftHand  0.291301 3.48251 -19.6446
RightShoulder  2.12829 5.68925 16.5016
RightArm  -40.8597 6.57305 -7.31648
RightForeArm  -31.6492 10.1887 7.9148
RightHand  0.969112 1.56758 15.9562
LeftUpLeg  -15.1546 10.4236 30.5575
LeftLeg  37.9951 -0.241252 0.165055
LeftFoot  -13.9485 -0.520995 -26.113
LeftToes  -4.03819e-010 -8.71445e-011 8.52097e-011
